<svg xmlns="http://www.w3.org/2000/svg" width="292.67" height="323.328" viewBox="0 0 292.67 323.328">
  <g id="icon" transform="translate(-855.33 -745.9)">
    <path id="Path_7" data-name="Path 7" d="M1148,892.22c0-2.77-.09-5.53-.24-8.26h.2A146.328,146.328,0,0,0,1001.87,745.9c-2.85,0-5.67.09-8.48.25v-.03a146.325,146.325,0,0,0-3.54,291.94,3.3,3.3,0,0,0,3.53-3.3V958.28a8.455,8.455,0,0,1,16.72,1.79l.05,105.66a3.491,3.491,0,0,0,5.68,2.72l29.33-23.54,46.15-37.05h0A146.008,146.008,0,0,0,1148,892.22Z"/>
    <circle id="Ellipse_1" data-name="Ellipse 1" cx="92.94" cy="92.94" r="92.94" transform="translate(908.73 778.5)" fill="#fff"/>
    <path id="Path_8" data-name="Path 8" d="M993.39,930.16h0c.71.34,8.76,3.09,16.55,0h0c3.3-1.57,6.7-3.4,6.7-8.04,0-3.85-3.61-7.77-14.98-7.77s-14.98,3.92-14.98,7.77C986.69,926.76,990.09,928.59,993.39,930.16Z"/>
    <g id="Group_4" data-name="Group 4">
      <path id="Path_9" data-name="Path 9" d="M1060.87,915.31a32.643,32.643,0,0,0,5.62-17.68,30.633,30.633,0,0,0-40.81-28.88s-11.76,4.66-13.74,16.62,8.5,14.26,15.06,16.22,12.94,7.73,15.44,11.38,4.74,6.65,9.67,6.65S1059.41,917.58,1060.87,915.31Z"/>
      <path id="Path_10" data-name="Path 10" d="M942.46,915.31a32.643,32.643,0,0,1-5.62-17.68,30.633,30.633,0,0,1,40.81-28.88s11.76,4.66,13.74,16.62-8.5,14.26-15.06,16.22-12.94,7.73-15.44,11.38-4.74,6.65-9.67,6.65S943.93,917.58,942.46,915.31Z"/>
    </g>
  </g>
</svg>
