<?xml version="1.0" encoding="utf-8"?>
<!-- Generator: Adobe Illustrator 24.2.1, SVG Export Plug-In . SVG Version: 6.00 Build 0)  -->
<svg version="1.1" id="Layer_1" xmlns="http://www.w3.org/2000/svg" xmlns:xlink="http://www.w3.org/1999/xlink" x="0px" y="0px"
	 viewBox="0 0 250 250" enable-background="new 0 0 250 250" xml:space="preserve">
<path fill="#1ED760" d="M125,9.95C61.33,9.95,9.95,61.33,9.95,125S61.33,240.05,125,240.05S240.05,188.67,240.05,125
	S188.67,9.95,125,9.95z M125,20.05c58.25,0,104.95,46.7,104.95,104.95S183.25,229.95,125,229.95S20.05,183.25,20.05,125
	S66.75,20.05,125,20.05z M109.67,70C80,70,57.68,75.14,56.59,75.39h-0.01v0.01c-8,1.87-13.05,10-11.19,18
	c1.86,8.01,9.99,13.04,17.99,11.21h0.04l0.03-0.01c-0.57,0.14,0.25-0.06,0.85-0.19c0.6-0.13,1.49-0.3,2.64-0.52
	c2.3-0.43,5.64-1.01,9.79-1.59c8.32-1.15,19.9-2.3,32.94-2.3h0.31c21.56,0.03,52.55,3.34,77.42,17.94h0.01v0.01
	c2.36,1.38,5,2.05,7.58,2.05c5.15,0,10.17-2.69,12.95-7.41c4.16-7.09,1.75-16.36-5.34-20.53C171.38,73.73,135.04,70.04,110.02,70
	L109.67,70z M109.67,80h0.35c24.02,0.03,58.74,3.79,87.51,20.68c2.44,1.43,3.21,4.41,1.79,6.85c-0.95,1.62-2.61,2.47-4.33,2.47
	c-0.85,0-1.7-0.21-2.52-0.68l-0.02-0.01C165.07,93.24,132.52,90.03,109.99,90h-0.32c-13.63,0-25.64,1.2-34.31,2.4
	c-4.33,0.6-7.84,1.2-10.28,1.66c-1.22,0.23-2.18,0.43-2.84,0.57c-0.63,0.13-0.58,0.11-1.08,0.23c-2.78,0.64-5.39-0.98-6.03-3.73
	c-0.64-2.75,0.98-5.35,3.72-6C59.61,84.96,81.16,80,109.67,80L109.67,80z M109.96,110.01c-12.53,0.1-23.35,1.28-31.25,2.48
	c-7.9,1.2-12.39,2.29-13.83,2.71c-7.16,2.03-11.4,9.61-9.37,16.78c2.04,7.17,9.62,11.39,16.78,9.36l0.03-0.01h0.02
	c0.13-0.03,0.33-0.08,0.6-0.14c0.53-0.12,1.3-0.28,2.3-0.48c2-0.4,4.89-0.95,8.46-1.48c7.14-1.08,17.01-2.17,27.91-2.27
	c19.32-0.17,41.23,2.67,62.61,15.99c2.23,1.4,4.74,2.07,7.19,2.07c4.53,0,8.98-2.3,11.54-6.4c3.94-6.32,1.98-14.79-4.35-18.72
	C161.68,113.12,132.8,109.82,109.96,110.01L109.96,110.01z M110.05,120c21.81-0.18,48.57,2.99,73.27,18.38
	c1.73,1.07,2.22,3.21,1.14,4.94c-0.7,1.12-1.86,1.69-3.06,1.69c-0.66,0-1.28-0.17-1.88-0.54l-0.01-0.01
	c-23.46-14.62-47.62-17.69-68-17.51c-11.51,0.1-21.82,1.25-29.32,2.38c-3.75,0.57-6.79,1.13-8.94,1.56
	c-1.07,0.22-1.92,0.39-2.52,0.53c-0.3,0.07-0.54,0.12-0.71,0.17c-0.18,0.04,0.1-0.05-0.53,0.14l0.05-0.02
	c-1.91,0.54-3.87-0.53-4.42-2.47c-0.56-1.96,0.51-3.87,2.47-4.42h0.01c-0.06,0.02,5.09-1.3,12.6-2.44
	C87.73,121.23,98.1,120.1,110.05,120L110.05,120z M112.5,145.01c-21.79,0.01-37.93,5.3-38.96,5.64c-6.49,2.16-10.06,9.32-7.9,15.81
	c2.16,6.49,9.32,10.1,15.83,7.89l-0.08,0.03c0.5-0.16,0.8-0.27,2.31-0.67s3.75-0.95,6.53-1.5c5.57-1.1,13.38-2.19,22.26-2.2
	c21.68,0,36.5,5.19,48.07,12.9v-0.01c2.12,1.42,4.55,2.11,6.92,2.11c4.03,0,8.02-1.99,10.41-5.58c3.79-5.69,2.22-13.53-3.47-17.32
	C156.21,149.96,135.7,145,112.5,145.01L112.5,145.01z M112.5,155.01c21.8-0.01,39.97,4.48,56.39,15.42c1.19,0.8,1.49,2.27,0.69,3.47
	c-0.5,0.76-1.27,1.11-2.09,1.11c-0.49,0-0.94-0.13-1.38-0.42v-0.01c-13.17-8.78-30.3-14.58-53.61-14.57
	c-9.69,0-18.12,1.19-24.19,2.38c-3.03,0.6-5.48,1.2-7.2,1.66c-1.71,0.46-3.2,0.95-2.77,0.81l-0.04,0.01l-0.04,0.01
	c-1.33,0.45-2.68-0.22-3.13-1.58s0.22-2.71,1.58-3.16C77,160.04,92.34,155.01,112.5,155.01z"/>
</svg>
